<svg width="1024" height="1024" viewBox="0 0 1024 1024" fill="none" xmlns="http://www.w3.org/2000/svg">
<path d="M299.875 787.375V798.375H220.625V737H298.875V748.25H234.75V761.875H296.25V772.75H234.75V787.375H299.875ZM311.25 816V827.375H208V816H311.25ZM368.525 739.875V781.375H341.775V802.625C353.463 802.5 364.525 802 377.275 799.625L378.4 811C363.275 813.75 350.525 814.125 336.275 814.125H328.4V770.375H355.15V751H328.275V739.875H368.525ZM422.275 728.125V841.125H409.025V728.125H422.275ZM399.025 730.5V835.375H385.9V778.75H373.525V767.375H385.9V730.5H399.025ZM469.175 730.125V739H517.925V730.125H531.675V767.875H455.425V730.125H469.175ZM469.175 757.375H517.925V749.125H469.175V757.375ZM545.05 775.125V786H442.05V775.125H545.05ZM532.175 794V821.25H467.925V829.5H535.3V840.125H454.3V811.5H518.55V804.25H454.175V794H532.175Z" fill="black"/>
<path d="M660.6 738.125V752.125H638.475C639.038 762.688 646.35 773.5 664.6 778.25L656.475 792.125C643.538 788.875 634.788 782.062 629.6 773.25C624.538 783 615.725 790.562 602.35 794L593.85 780.125C612.163 775.312 619.725 763.75 620.35 752.125H598.225V738.125H620.35V726.875H638.475V738.125H660.6ZM686.475 727.25V753.5H701.35V768.125H686.475V794.25H668.475V727.25H686.475ZM686.475 798.875V840.75H610.725V798.875H686.475ZM628.475 813V826.375H668.725V813H628.475ZM809.125 727.375V811.625H791.375V789H766.625V774.625H791.375V763.25H768.375C760.25 780.5 743.938 793.188 721 800L713.5 786C737.188 778.562 751.562 765.75 754.625 750.125H719.75V735.875H774.125C774.125 740.438 773.688 744.812 773 749H791.375V727.375H809.125ZM812.125 825.75V840.125H732.75V803.25H751.125V825.75H812.125Z" fill="#1F66E3"/>
<path d="M343.706 888.32V897.383H348.784V900.547H343.706V909.414H339.995V888.32H343.706ZM343.706 911.25V922.891H321.363V911.25H343.706ZM324.995 914.18V919.883H340.034V914.18H324.995ZM337.105 891.875V894.844H316.245V891.875H324.839V888.047H328.55V891.875H337.105ZM326.675 896.367C331.714 896.367 335.152 898.867 335.152 902.617C335.152 906.406 331.714 908.867 326.675 908.906C321.558 908.867 318.159 906.406 318.159 902.617C318.159 898.867 321.558 896.367 326.675 896.367ZM326.675 899.219C323.706 899.18 321.714 900.508 321.753 902.617C321.714 904.805 323.706 906.094 326.675 906.094C329.644 906.094 331.636 904.805 331.675 902.617C331.636 900.508 329.644 899.18 326.675 899.219ZM360.248 892.461C360.209 900.312 359.233 908.398 354.35 915.273L351.459 913.633C355.541 908.164 356.772 902.109 357.045 895.508H352.28V892.461H360.248ZM368.022 892.461C368.022 895.41 367.963 898.633 367.592 901.875H371.694V889.219H375.209V921.602H371.694V904.883H367.163C366.362 909.238 364.897 913.555 362.202 917.383L359.311 915.703C363.842 909.629 364.663 902.266 364.819 895.508H361.303V892.461H368.022ZM381.85 888.32V923.32H378.295V888.32H381.85ZM415.247 891.406V907.734H398.88V891.406H415.247ZM402.513 894.414V904.805H411.614V894.414H402.513ZM425.013 888.281V898.75H430.091V901.875H425.013V913.945H421.302V888.281H425.013ZM426.497 919.57V922.578H402.825V911.484H406.536V919.57H426.497ZM461.242 904.922V907.969H436.867V891.445H460.93V894.492H440.539V904.922H461.242ZM464.914 915.625V918.711H432.883V915.625H464.914ZM496.573 898.555V901.523H472.472V889.57H476.144V898.555H496.573ZM500.245 905.938V908.906H468.214V905.938H500.245ZM496.808 919.453V922.5H472.198V912.227H475.909V919.453H496.808ZM531.963 891.562V894.648H519.658V911.719C525.517 911.699 529.56 911.484 534.15 910.586L534.58 913.633C529.541 914.57 525.283 914.805 518.681 914.805H515.908V891.562H531.963ZM543.408 888.32V923.398H539.697V903.906H529.97V900.82H539.697V888.32H543.408ZM577.898 898.75V902.578H592.117V905.586H560.086V902.578H574.227V898.75H577.898ZM589.188 889.336V892.188H578.602C579.188 895.215 584.109 897.617 590.438 898.047L589.227 900.82C583.055 900.293 577.938 898.047 576.102 894.531C574.246 898.047 569.109 900.293 562.938 900.82L561.727 898.047C567.938 897.617 572.938 895.215 573.562 892.188H563.055V889.336H589.188ZM589.07 909.883V912.734H563.055V909.883H574.227V906.797H577.898V909.883H589.07ZM576.023 914.219C582.82 914.219 586.727 915.82 586.727 918.828C586.727 921.875 582.82 923.477 576.023 923.477C569.227 923.477 565.438 921.875 565.438 918.828C565.438 915.82 569.227 914.219 576.023 914.219ZM576.023 916.758C571.648 916.758 569.188 917.422 569.227 918.828C569.188 920.234 571.648 920.977 576.023 920.938C580.477 920.977 582.859 920.234 582.898 918.828C582.859 917.422 580.477 916.758 576.023 916.758ZM627.409 906.602V909.57H595.495V906.602H627.409ZM623.816 919.57V922.578H599.519V912.422H603.269V919.57H623.816ZM611.433 889.492C619.011 889.453 623.933 892.109 623.933 896.484C623.933 900.898 619.011 903.555 611.433 903.594C603.816 903.555 598.933 900.898 598.933 896.484C598.933 892.109 603.816 889.453 611.433 889.492ZM611.433 892.461C606.081 892.461 602.722 893.984 602.761 896.484C602.722 899.062 606.081 900.547 611.433 900.547C616.784 900.547 620.105 899.062 620.105 896.484C620.105 893.984 616.784 892.461 611.433 892.461ZM650.923 890.938C654.107 890.938 656.744 892.773 658.306 895.938H666.939V888.32H670.611V923.398H666.939V909.961H658.541C657.037 913.477 654.283 915.508 650.923 915.508C645.689 915.508 642.017 910.742 642.056 903.203C642.017 895.703 645.689 890.938 650.923 890.938ZM650.923 894.258C647.759 894.258 645.572 897.695 645.572 903.203C645.572 908.75 647.759 912.188 650.923 912.188C654.088 912.188 656.275 908.75 656.275 903.203C656.275 897.695 654.088 894.258 650.923 894.258ZM659.361 898.984C659.615 900.273 659.791 901.68 659.791 903.203C659.791 904.531 659.673 905.762 659.439 906.914H666.939V898.984H659.361ZM706.645 888.32V910.391H703.13V900.625H699.067V909.18H695.591V888.984H699.067V897.578H703.13V888.32H706.645ZM694.302 892.305V895.234H676.606V892.305H683.677V888.594H687.348V892.305H694.302ZM685.473 896.875C689.927 896.875 693.052 899.258 693.052 902.891C693.052 906.523 689.927 908.906 685.473 908.906C681.098 908.906 677.973 906.523 677.973 902.891C677.973 899.258 681.098 896.875 685.473 896.875ZM685.473 899.609C683.013 899.609 681.294 900.898 681.294 902.891C681.294 904.883 683.013 906.211 685.473 906.211C688.013 906.211 689.692 904.883 689.692 902.891C689.692 900.898 688.013 899.609 685.473 899.609ZM694.927 910.898C702.348 910.898 706.802 913.125 706.841 917.109C706.802 921.016 702.348 923.281 694.927 923.242C687.505 923.281 683.052 921.016 683.091 917.109C683.052 913.125 687.505 910.898 694.927 910.898ZM694.927 913.75C689.731 913.75 686.723 914.922 686.763 917.109C686.723 919.219 689.731 920.43 694.927 920.391C700.161 920.43 703.091 919.219 703.13 917.109C703.091 914.922 700.161 913.75 694.927 913.75Z" fill="black"/>
<path d="M573.896 276.049C573.061 273.687 574.097 270.991 576.369 269.822C600.98 257.157 627.726 249.122 655.131 246.177C755.728 235.38 839.157 292.689 852.515 390.694C854.109 402.269 854.832 413.961 855.668 425.634L854.441 428.7C849.772 504.476 810.47 562.353 741.192 598.2C739.564 599.043 738.463 600.684 738.319 602.499C736.82 621.392 733.646 636.979 728.975 654.991C728.213 657.931 725.067 659.592 722.328 658.442C702.625 650.169 674.523 634.846 656.113 625.369C655.275 624.938 654.393 624.764 653.44 624.85C594.727 630.179 423.079 594.815 386.182 554.312C343.157 507.074 492.811 438.475 526.185 417.71C580.699 426.337 580.603 417.148 571.143 369.934C570.721 367.827 570.996 365.59 571.892 363.596C587.441 329.005 585.751 309.558 573.896 276.049Z" fill="#1F66E3"/>
<path d="M681.312 342.544C690.349 340.15 699.641 345.439 702.203 354.438C704.764 363.437 699.648 372.829 690.698 375.555C684.761 377.364 678.31 375.825 673.83 371.533C669.349 367.239 667.53 360.86 669.079 354.85C670.639 348.838 675.304 344.135 681.312 342.544Z" fill="#F5F5F5"/>
<path d="M325.813 169.851C327.31 169.271 327.24 169.267 329.079 168.765C390.392 152.608 455.714 164.09 511.328 200.801C500.335 208.975 487.108 215.54 477.549 226.158C468.294 235.886 474.714 253.11 475.239 266.5C480.584 402.929 276.837 412.668 289.772 550.248C293.762 571.437 303.286 584.193 314.844 600.894C286.856 600.864 260.929 598.633 236.52 582.371C108.73 497.269 139.66 289.143 248.059 210.358C277.388 189.046 292.895 180.479 325.813 169.851Z" fill="#0AAFA4"/>
<path d="M408.733 264.172C417.769 261.778 427.061 267.067 429.623 276.066C432.184 285.065 427.068 294.457 418.119 297.183C412.181 298.992 405.73 297.453 401.25 293.161C396.77 288.867 394.951 282.488 396.499 276.478C398.06 270.466 402.725 265.763 408.733 264.172Z" fill="#F5F5F5"/>
</svg>
