<svg width="1024" height="1024" viewBox="0 0 1024 1024" fill="none" xmlns="http://www.w3.org/2000/svg">
<path d="M584.573 340.221C583.733 337.861 584.773 335.173 587.043 333.996C616.227 318.867 647.982 309.276 680.526 305.779C799.022 293.06 897.296 360.566 913.031 476.01C914.909 489.644 915.759 503.416 916.745 517.167L915.3 520.778C909.79 610.208 863.327 678.474 781.43 720.68C779.801 721.52 778.698 723.162 778.557 724.977C776.781 747.812 772.939 766.515 767.253 788.317C766.487 791.257 763.341 792.92 760.597 791.781C737.269 782.099 703.421 763.623 681.453 752.322C680.615 751.891 679.739 751.718 678.786 751.806C609.867 758.207 407.238 716.508 363.724 668.74C313.043 613.097 489.325 532.292 528.636 507.832C593.07 518.029 592.736 507.096 581.48 450.983C581.057 448.877 581.333 446.622 582.234 444.63C600.926 403.289 598.838 380.325 584.573 340.221Z" fill="#1F66E3"/>
<path d="M711.365 419.294C722.01 416.473 732.955 422.705 735.973 433.305C738.99 443.905 732.963 454.967 722.421 458.179C715.427 460.309 707.828 458.497 702.551 453.441C697.274 448.383 695.131 440.869 696.955 433.79C698.793 426.708 704.288 421.168 711.365 419.294Z" fill="#F5F5F5"/>
<path d="M292.611 215.874C294.375 215.19 294.292 215.186 296.458 214.595C368.68 195.562 445.625 209.088 511.135 252.331C498.185 261.958 482.605 269.692 471.345 282.2C460.443 293.658 468.006 313.947 468.625 329.72C474.921 490.423 234.921 501.895 250.157 663.954C254.858 688.914 266.076 703.94 279.69 723.612C246.723 723.577 216.182 720.948 187.431 701.793C36.9026 601.549 73.3363 356.391 201.023 263.588C235.569 238.483 253.836 228.392 292.611 215.874Z" fill="#0AAFA4"/>
<path d="M390.285 326.977C400.93 324.156 411.875 330.387 414.893 340.987C417.91 351.588 411.883 362.65 401.341 365.861C394.347 367.992 386.748 366.18 381.471 361.123C376.194 356.065 374.051 348.552 375.875 341.472C377.713 334.39 383.208 328.851 390.285 326.977Z" fill="#F5F5F5"/>
</svg>
