<svg width="2042" height="513" viewBox="0 0 2042 513" fill="none" xmlns="http://www.w3.org/2000/svg">
<path d="M395.871 172.473C395.055 170.103 396.088 167.412 398.376 166.274C412.435 159.282 427.631 154.83 443.187 153.158C502.515 146.79 551.718 180.589 559.596 238.389C560.537 245.215 560.963 252.11 561.456 258.995L560.732 260.803C558.003 305.098 535.208 339.022 495.022 360.204C493.4 361.059 492.306 362.694 492.148 364.507C491.296 374.321 489.662 382.682 487.319 391.985C486.578 394.931 483.426 396.582 480.707 395.388C469.454 390.446 454.504 382.333 444.295 377.063C443.457 376.631 442.555 376.458 441.602 376.535C406.432 379.393 306.21 358.637 284.572 334.884C259.198 307.025 347.458 266.568 367.14 254.321C398.772 259.327 399.227 254.162 393.92 227.474C393.501 225.366 393.784 223.142 394.658 221.139C402.969 202.104 402.18 190.806 395.871 172.473Z" fill="#1F66E3"/>
<path d="M458.628 209.992C463.958 208.579 469.438 211.699 470.948 217.006C472.459 222.314 469.442 227.852 464.164 229.46C460.662 230.527 456.857 229.619 454.215 227.088C451.573 224.556 450.5 220.794 451.413 217.249C452.334 213.703 455.085 210.93 458.628 209.992Z" fill="#F5F5F5"/>
<path d="M248.971 108.144C249.854 107.802 249.813 107.8 250.898 107.504C287.057 97.9745 325.582 104.746 358.381 126.397C351.897 131.217 344.097 135.089 338.459 141.352C333.001 147.089 336.787 157.247 337.097 165.144C340.249 245.604 220.088 251.348 227.716 332.486C230.069 344.983 235.686 352.506 242.502 362.356C225.996 362.338 210.705 361.022 196.31 351.432C120.945 301.242 139.186 178.497 203.116 132.033C220.412 119.464 229.558 114.412 248.971 108.144Z" fill="#0AAFA4"/>
<path d="M297.873 163.771C303.202 162.359 308.682 165.478 310.193 170.786C311.704 176.093 308.686 181.632 303.408 183.239C299.907 184.306 296.102 183.399 293.46 180.867C290.818 178.335 289.745 174.573 290.658 171.028C291.578 167.483 294.33 164.709 297.873 163.771Z" fill="#F5F5F5"/>
<path d="M875.212 261.771V283.771H716.712V161.021H873.212V183.521H744.962V210.771H867.962V232.521H744.962V261.771H875.212ZM897.962 319.021V341.771H691.462V319.021H897.962ZM1012.51 166.771V249.771H959.012V292.271C982.387 292.021 1004.51 291.021 1030.01 286.271L1032.26 309.021C1002.01 314.521 976.512 315.271 948.012 315.271H932.262V227.771H985.762V189.021H932.012V166.771H1012.51ZM1120.01 143.271V369.271H1093.51V143.271H1120.01ZM1073.51 148.021V357.771H1047.26V244.521H1022.51V221.771H1047.26V148.021H1073.51ZM1213.81 147.271V165.021H1311.31V147.271H1338.81V222.771H1186.31V147.271H1213.81ZM1213.81 201.771H1311.31V185.271H1213.81V201.771ZM1365.56 237.271V259.021H1159.56V237.271H1365.56ZM1339.81 275.021V329.521H1211.31V346.021H1346.06V367.271H1184.06V310.021H1312.56V295.521H1183.81V275.021H1339.81Z" fill="black"/>
<path d="M1596.66 163.271V191.271H1552.41C1553.54 212.396 1568.16 234.021 1604.66 243.521L1588.41 271.271C1562.54 264.771 1545.04 251.146 1534.66 233.521C1524.54 253.021 1506.91 268.146 1480.16 275.021L1463.16 247.271C1499.79 237.646 1514.91 214.521 1516.16 191.271H1471.91V163.271H1516.16V140.771H1552.41V163.271H1596.66ZM1648.41 141.521V194.021H1678.16V223.271H1648.41V275.521H1612.41V141.521H1648.41ZM1648.41 284.771V368.521H1496.91V284.771H1648.41ZM1532.41 313.021V339.771H1612.91V313.021H1532.41ZM1893.71 141.771V310.271H1858.21V265.021H1808.71V236.271H1858.21V213.521H1812.21C1795.96 248.021 1763.34 273.396 1717.46 287.021L1702.46 259.021C1749.84 244.146 1778.59 218.521 1784.71 187.271H1714.96V158.771H1823.71C1823.71 167.896 1822.84 176.646 1821.46 185.021H1858.21V141.771H1893.71ZM1899.71 338.521V367.271H1740.96V293.521H1777.71V338.521H1899.71Z" fill="#1F66E3"/>
</svg>
